# xmcd
#
# Track frame offsets:
#	150
#	12187
#	24012
#	36075
#	48975
#	63050
#	75762
#	95362
#	110162
#	123987
#	141250
#	155925
#	172037
#	182925
#	194675
#	209487
#
# Disc length: 3003
#
# Revision: 1
# Processed by: cddbd v1.5.1PL0 Copyright (c) Steve Scherf et al.
# Submitted via: ExactAudioCopy v0.90b4
# Normalized: r0:DSETVAR1
#
DISCID=d80bb910
DTITLE=Various Artist - No. 1 Hit Collection Country
DYEAR=1994
DGENRE=Country
TTITLE0=Tammy Wynette - Stand By Your Man
TTITLE1=Johnny Cash - Ring Of Fire
TTITLE2=Charlie Rich - The Most Beautiful Girl
TTITLE3=Lynn Anderson - Rose Garden
TTITLE4=Merle Haggard and Janie Frickie - Natural High
TTITLE5=Johnny Horton - North To Alaska
TTITLE6=Marty Robbins - El Paso
TTITLE7=Rodney Rowell - I Couldn't Leave You If I Tried
TTITLE8=Barbara Fairchild - Teddy Bear Song
TTITLE9=Ricky Skaggs - Country Boy
TTITLE10=Janie Frickie - Let's Stop Talkin' About Us
TTITLE11=Charlie Daniels - The Devil Went Down To Georgia
TTITLE12=Tanya Tucker - Would You Lay With Me
TTITLE13=Johnny Paycheck - Take This Job And Shove It
TTITLE14=Rosanne Cash - Seveb Year Ache
TTITLE15=Willie Nelson - Always On My Mind
EXTD=
EXTT0=
EXTT1=
EXTT2=
EXTT3=
EXTT4=
EXTT5=
EXTT6=
EXTT7=
EXTT8=
EXTT9=
EXTT10=
EXTT11=
EXTT12=
EXTT13=
EXTT14=
EXTT15=
PLAYORDER=
